<?xml version="1.0" encoding="UTF-8"?>
<svg id="Layer_1" xmlns="http://www.w3.org/2000/svg" version="1.1" viewBox="0 0 46 26">
  <!-- Generator: Adobe Illustrator 30.0.0, SVG Export Plug-In . SVG Version: 2.1.1 Build 123)  -->
  <defs>
    <style>
      .st0, .st1 {
        fill: #1d1d1b;
      }

      .st1 {
        stroke: #1d1d1b;
        stroke-miterlimit: 10;
        stroke-width: .5px;
      }
    </style>
  </defs>
  <g>
    <rect class="st0" x="11.51" y="6.57" width="1.18" height="11.69"/>
    <path class="st0" d="M9.01,6.05c-.45-.62-.98-1.12-1.58-1.49-.6-.36-1.24-.55-1.92-.55s-1.36.18-1.97.55c-.61.37-1.14.87-1.58,1.49-.44.62-.8,1.37-1.06,2.23-.26.86-.39,1.78-.39,2.75v14.2h1.18v-9.67c.42.7.93,1.28,1.52,1.72.68.51,1.45.78,2.3.78.68,0,1.32-.19,1.92-.55.6-.36,1.13-.86,1.58-1.49.46-.62.82-1.37,1.09-2.22.26-.85.4-1.78.4-2.77s-.13-1.9-.4-2.76c-.27-.86-.64-1.61-1.09-2.23ZM9.32,11.04c0,.73-.1,1.43-.3,2.08h0c-.2.65-.48,1.22-.82,1.71-.34.48-.75.87-1.21,1.16-.46.28-.96.43-1.48.43s-1.01-.14-1.48-.43c-.46-.29-.87-.67-1.21-1.16-.34-.48-.62-1.06-.82-1.71-.2-.65-.3-1.35-.3-2.08s.1-1.43.3-2.08c.2-.65.48-1.23.82-1.71.34-.48.75-.87,1.21-1.15.46-.28.96-.43,1.48-.43s1.02.14,1.48.43c.46.29.87.67,1.21,1.15.34.48.62,1.05.82,1.71.2.65.3,1.35.3,2.08Z"/>
    <path class="st0" d="M22.19,6.16h0c-.46-.62-.99-1.12-1.59-1.49-.6-.36-1.24-.55-1.92-.55s-1.36.18-1.97.55c-.6.36-1.13.86-1.58,1.49-.44.63-.8,1.38-1.06,2.23-.26.86-.39,1.78-.39,2.75s.13,1.92.39,2.77c.26.85.61,1.59,1.06,2.22.44.62.97,1.12,1.58,1.49.6.36,1.26.55,1.97.55s1.32-.18,1.92-.55c.6-.37,1.13-.87,1.59-1.49.46-.63.82-1.38,1.09-2.22.26-.85.4-1.78.4-2.77s-.13-1.9-.4-2.75c-.26-.85-.63-1.6-1.09-2.24ZM22.5,11.15c0,.73-.1,1.43-.31,2.08-.2.65-.48,1.22-.82,1.71-.34.48-.75.87-1.21,1.15-.46.28-.96.43-1.48.43s-1.02-.14-1.48-.43c-.46-.28-.87-.67-1.21-1.15-.34-.48-.62-1.06-.82-1.71-.2-.65-.3-1.35-.3-2.08s.1-1.43.3-2.08c.2-.65.48-1.23.82-1.71.34-.48.75-.87,1.21-1.15.46-.29.96-.43,1.48-.43s1.01.14,1.48.43c.46.29.87.67,1.21,1.15.34.48.62,1.05.82,1.71.2.65.31,1.35.31,2.08Z"/>
    <polygon class="st0" points="25.83 15.94 25.83 4.13 24.67 4.13 24.67 18.18 25.77 18.18 35.36 4.82 34.55 3.68 25.83 15.94"/>
    <path class="st0" d="M45.49,11.2c0-.97-.13-1.9-.39-2.75-.26-.86-.61-1.61-1.06-2.23-.45-.63-.98-1.13-1.59-1.49-.61-.36-1.27-.55-1.96-.55s-1.37.18-1.97.55c-.6.36-1.13.86-1.58,1.49-.45.63-.8,1.38-1.06,2.23-.26.86-.39,1.78-.39,2.75s.13,1.92.39,2.77c.26.84.61,1.59,1.06,2.22.44.62.98,1.12,1.58,1.49.6.36,1.26.55,1.97.55.55,0,1.08-.13,1.58-.38.5-.25.97-.59,1.39-1.02.42-.43.79-.95,1.1-1.55.31-.59.55-1.25.73-1.96l.05-.18h-1.28l-.03.09c-.29,1.02-.75,1.84-1.37,2.44-.62.6-1.35.91-2.16.91-.48,0-.94-.12-1.36-.36-.42-.24-.81-.57-1.16-.98-.34-.41-.63-.91-.85-1.48-.2-.52-.35-1.1-.43-1.72h8.79v-.83ZM44.29,10.37h-7.59c.08-.61.23-1.18.43-1.71h0c.22-.58.51-1.08.85-1.49.34-.41.73-.74,1.16-.98.42-.24.88-.36,1.36-.36s.93.12,1.35.36c.43.24.82.57,1.17.98.34.41.63.91.85,1.49.2.53.35,1.11.43,1.71Z"/>
    <polygon class="st0" points="42.26 1.76 41.43 .6 39.9 2.75 40.73 3.91 42.26 1.76"/>
    <rect class="st0" x="11.51" y="4.09" width="1.18" height="1.65"/>
  </g>
  <g>
    <path class="st1" d="M14.93,24.52h-.27v-1.35c0-.22,0-.37-.03-.47s-.06-.18-.12-.25c-.06-.07-.14-.1-.24-.1s-.19.05-.28.14c-.09.09-.15.21-.18.37-.03.16-.05.39-.05.69v.98h-.26v-1.27c0-.25,0-.43-.03-.54-.02-.11-.06-.2-.12-.27-.06-.07-.14-.1-.24-.1s-.18.04-.27.13c-.09.08-.15.19-.19.33-.04.13-.06.36-.06.67v1.05h-.27v-2.48h.27v.35c.15-.28.34-.41.57-.41.12,0,.23.05.33.14.1.09.17.22.21.39.07-.17.16-.3.27-.4.11-.09.23-.14.35-.14.17,0,.31.08.43.25.12.17.18.48.18.94v1.35Z"/>
    <path class="st1" d="M17.11,24.52h-.26v-.36c-.19.3-.41.45-.66.45s-.46-.13-.64-.39-.27-.57-.27-.93.09-.67.27-.92c.18-.26.4-.38.65-.38s.47.15.65.44v-.38h.26v2.48ZM16.2,24.26c.18,0,.33-.09.46-.27s.19-.41.19-.68-.06-.5-.19-.68c-.13-.18-.28-.28-.47-.28s-.34.09-.47.28c-.13.19-.19.41-.19.67s.06.48.19.67c.13.19.28.28.47.28Z"/>
    <path class="st1" d="M18.94,24.52h-.38l-.83-1.05v1.05h-.27v-3.41h.27v1.87l.76-.93h.4s-.97,1.18-.97,1.18l1.02,1.3Z"/>
    <path class="st1" d="M20.92,23.35h-1.55c.01.27.08.49.2.66.12.17.26.25.43.25.28,0,.5-.2.65-.59l.23.16c-.1.26-.22.46-.36.58-.14.13-.3.19-.49.19-.27,0-.48-.13-.66-.38-.17-.26-.26-.56-.26-.93s.09-.67.26-.93c.17-.26.39-.39.64-.39s.47.12.64.37c.17.24.26.58.27,1ZM20.62,23.02c-.03-.21-.11-.38-.22-.5-.11-.12-.25-.18-.39-.18-.3,0-.5.22-.6.67h1.22Z"/>
    <path class="st1" d="M22.05,23.33h-.91v-.34h.91v.34Z"/>
    <path class="st1" d="M23.88,24.52h-.27v-.37c-.17.29-.38.44-.62.44-.13,0-.24-.05-.35-.14-.1-.09-.18-.22-.23-.38-.05-.16-.08-.41-.08-.75v-1.27h.27v1.18c0,.27,0,.46.03.56.02.1.05.18.08.25.04.07.08.12.14.15s.12.05.2.05.16-.03.23-.08.14-.13.19-.23c.05-.1.09-.2.11-.31.02-.11.03-.33.03-.65v-.92h.27v2.48Z"/>
    <path class="st1" d="M24.59,22.42c.17-.29.39-.44.65-.44s.47.13.65.38c.18.26.27.56.27.93s-.09.67-.27.93c-.18.26-.39.39-.64.39s-.47-.15-.66-.45v1.24h-.27v-3.36h.27v.38ZM25.24,24.26c.18,0,.33-.09.46-.28.13-.19.2-.41.2-.68s-.06-.49-.19-.68-.28-.28-.47-.28-.34.09-.47.28c-.13.18-.19.41-.19.68s.06.5.19.68c.13.18.29.28.47.28Z"/>
    <path class="st1" d="M27.6,22.42c.17-.29.39-.44.65-.44s.47.13.65.38c.18.26.27.56.27.93s-.09.67-.27.93c-.18.26-.39.39-.64.39s-.47-.15-.66-.45v1.24h-.27v-3.36h.27v.38ZM28.25,24.26c.18,0,.33-.09.46-.28.13-.19.2-.41.2-.68s-.06-.49-.19-.68-.28-.28-.47-.28-.34.09-.47.28c-.13.18-.19.41-.19.68s.06.5.19.68c.13.18.29.28.47.28Z"/>
    <path class="st1" d="M30.28,22.08l-.14.32s-.07-.04-.11-.04c-.07,0-.13.05-.18.14-.05.09-.09.21-.12.36s-.04.42-.04.81v.85h-.27v-2.48h.27v.27c.05-.11.11-.2.16-.25.05-.05.12-.08.19-.08s.15.03.24.1Z"/>
    <path class="st1" d="M31.35,21.98c.25,0,.47.13.65.39.18.26.27.57.27.93s-.09.67-.26.93c-.18.26-.39.38-.65.38s-.48-.13-.65-.38c-.18-.26-.27-.56-.27-.93s.09-.67.27-.93c.18-.26.39-.39.65-.39ZM31.35,24.25c.18,0,.33-.09.46-.28s.19-.4.19-.66-.06-.48-.19-.67c-.13-.19-.28-.28-.46-.28s-.33.09-.45.28c-.13.19-.19.41-.19.68s.06.48.18.66c.12.18.28.27.46.27Z"/>
    <path class="st1" d="M33.38,21.56c-.1-.06-.18-.09-.24-.09s-.1.03-.11.08c-.02.05-.03.14-.03.27v.23h.36v.33h-.36v2.15h-.27v-2.15h-.22v-.33h.22v-.28c0-.22.03-.39.09-.49.06-.1.15-.16.28-.16.07,0,.16.02.28.07v.38Z"/>
    <path class="st1" d="M35.38,23.35h-1.55c.01.27.08.49.2.66.12.17.26.25.43.25.28,0,.5-.2.65-.59l.23.16c-.1.26-.22.46-.36.58-.14.13-.3.19-.49.19-.27,0-.48-.13-.66-.38-.17-.26-.26-.56-.26-.93s.09-.67.26-.93c.17-.26.39-.39.64-.39s.47.12.64.37c.17.24.26.58.27,1ZM35.08,23.02c-.03-.21-.11-.38-.22-.5s-.25-.18-.39-.18c-.3,0-.5.22-.6.67h1.22Z"/>
    <path class="st1" d="M36.66,22.34l-.17.25c-.13-.17-.24-.25-.35-.25-.07,0-.12.03-.17.09-.05.06-.07.13-.07.22s.03.16.08.23c.05.07.14.15.27.24.13.1.23.2.3.32s.11.26.11.42c0,.21-.05.39-.16.54-.1.15-.23.22-.39.22-.21,0-.39-.13-.53-.38l.17-.26c.12.19.23.29.36.29.08,0,.15-.04.21-.11.06-.08.09-.16.09-.27s-.03-.19-.08-.25-.14-.15-.27-.24c-.13-.09-.23-.19-.29-.3-.07-.11-.1-.26-.1-.44s.05-.33.14-.46c.09-.13.22-.19.37-.19s.32.12.49.35Z"/>
    <path class="st1" d="M37.92,22.34l-.17.25c-.13-.17-.24-.25-.35-.25-.07,0-.12.03-.17.09-.05.06-.07.13-.07.22s.03.16.08.23c.05.07.14.15.27.24.13.1.23.2.3.32.07.12.11.26.11.42,0,.21-.05.39-.16.54-.1.15-.23.22-.39.22-.21,0-.39-.13-.53-.38l.17-.26c.12.19.23.29.36.29.08,0,.15-.04.21-.11.06-.08.09-.16.09-.27s-.03-.19-.08-.25c-.05-.07-.14-.15-.27-.24-.13-.09-.23-.19-.29-.3-.07-.11-.1-.26-.1-.44s.05-.33.14-.46c.09-.13.22-.19.37-.19s.32.12.49.35Z"/>
    <path class="st1" d="M38.35,21.11c.06,0,.11.03.15.08.04.06.06.12.06.2s-.02.15-.06.2c-.04.06-.09.08-.15.08s-.11-.03-.15-.09c-.04-.06-.06-.13-.06-.2s.02-.14.06-.2c.04-.06.09-.09.14-.09ZM38.49,24.52h-.27v-2.48h.27v2.48Z"/>
    <path class="st1" d="M39.74,21.98c.25,0,.47.13.65.39.18.26.27.57.27.93s-.09.67-.26.93c-.18.26-.39.38-.65.38s-.48-.13-.65-.38c-.18-.26-.27-.56-.27-.93s.09-.67.27-.93c.18-.26.39-.39.65-.39ZM39.74,24.25c.18,0,.33-.09.46-.28.13-.18.19-.4.19-.66s-.06-.48-.19-.67c-.13-.19-.28-.28-.46-.28s-.33.09-.45.28c-.13.19-.19.41-.19.68s.06.48.18.66.28.27.46.27Z"/>
    <path class="st1" d="M42.56,24.52h-.27v-1.18c0-.27,0-.46-.03-.56-.02-.1-.05-.18-.08-.25s-.08-.12-.14-.15c-.05-.03-.12-.05-.2-.05s-.16.03-.23.08c-.08.05-.14.13-.19.23-.05.1-.09.2-.11.31s-.03.33-.03.65v.92h-.27v-2.48h.27v.37c.17-.29.38-.44.62-.44.13,0,.24.05.35.14s.18.22.23.38c.05.16.08.41.08.75v1.27Z"/>
    <path class="st1" d="M44.75,24.52h-.26v-.36c-.19.3-.41.45-.66.45s-.46-.13-.64-.39c-.18-.26-.27-.57-.27-.93s.09-.67.27-.92c.18-.26.4-.38.65-.38s.47.15.65.44v-.38h.26v2.48ZM43.84,24.26c.18,0,.33-.09.46-.27.13-.18.19-.41.19-.68s-.06-.5-.19-.68c-.13-.18-.28-.28-.47-.28s-.34.09-.47.28c-.13.19-.19.41-.19.67s.06.48.19.67c.13.19.28.28.47.28Z"/>
    <path class="st1" d="M45.43,24.52h-.27v-3.41h.27v3.41Z"/>
  </g>
</svg>